OpenSim_Sub09_CSStiffKnee_GRF.mot
version=1
nRows=58
nColumns=19
inDegrees=no
endheader
time	lFx	lFy	lFz	lCOPx	lCOPy	lCOPz	rFx	rFy	rFz	rCOPx	rCOPy	rCOPz	lMx	lMy	lMz	rMx	rMy	rMz
53.45000000	45.32350295	690.36369743	58.84899040	0.45099001	0	-0.70393154	0.25889282	-0.36536312	-0.05983094	0.00064113	0	-0.00049220	0	0.15258135	0	0	0.00255456	0.00000000
53.46000000	47.92325401	690.20853178	58.31873647	0.44437568	0	-0.70371700	0.07323799	-0.21478612	-0.04626459	0.00072205	0	-0.00049849	0	0.18900604	0	0	0.00175587	0.00000000
53.47000000	50.85009217	689.71967524	57.94660605	0.43773835	0	-0.70351222	-0.01956242	-0.14845732	0.03594011	0.00041339	0	-0.00027233	0	0.21629734	0	0	0.00074274	0.00000000
53.48000000	53.92012270	688.50423112	57.80968777	0.43114369	0	-0.70335149	-0.04622750	-0.08508419	0.03203171	0.00014306	0	-0.00008822	0	0.18234628	0	0	0.00013610	-0.00000000
53.49000000	57.02847956	686.30496970	57.91077339	0.42450529	0	-0.70324530	-0.05655100	-0.03816989	0.03277668	0.00000638	0	0.00000065	0	0.05898635	0	0	-0.00008608	-0.00000000
53.50000000	60.32666614	683.11571316	58.13426804	0.41798543	0	-0.70319373	-0.06014279	-0.02673626	0.05617662	-0.00003258	0	0.00002379	0	-0.10472241	0	0	-0.00010534	-0.00000000
53.51000000	63.87806190	679.14226742	58.40010733	0.41170384	0	-0.70315745	-0.05272975	-0.06065389	0.01310754	-0.00002796	0	0.00001902	0	-0.26663317	0	0	-0.00006227	0.00000000
53.52000000	67.51407277	674.90021408	58.73416793	0.40579452	0	-0.70308761	-0.04966658	-0.08010305	-0.04367372	-0.00001397	0	0.00000907	0	-0.43861155	0	0	-0.00002245	0.00000000
53.53000000	70.97385018	670.89964108	59.10700188	0.40012308	0	-0.70298659	-0.05027153	-0.02135441	-0.05987991	-0.00000389	0	0.00000230	0	-0.62443085	0	0	-0.00000169	0.00000000
53.54000000	74.28204858	667.28359343	59.41523269	0.39426813	0	-0.70284888	-0.05160612	0.11077221	-0.01488777	0.00000054	0	-0.00000054	0	-0.82598032	0	0	0.00000456	0.00000000
53.55000000	77.68716039	663.91910963	59.54606841	0.38795681	0	-0.70268124	-0.06026913	0.20969059	0.02797449	0.00000146	0	-0.00000104	0	-0.97437085	0	0	0.00000412	-0.00000000
53.56000000	81.40236071	660.57304787	59.48905267	0.38137003	0	-0.70250144	-0.06308444	0.20781854	0.01579694	0.00000104	0	-0.00000070	0	-1.01917414	0	0	0.00000212	-0.00000000
53.57000000	85.27248458	657.03369660	59.33328509	0.37480356	0	-0.70231525	-0.04138003	0.13867202	-0.05895525	0.00000045	0	-0.00000029	0	-0.96094504	0	0	0.00000063	-0.00000000
53.58000000	89.11752637	653.00967468	59.10799588	0.36835831	0	-0.70211110	-0.03649077	0.09671856	-0.09607006	0.00000009	0	-0.00000005	0	-0.86909223	0	0	-0.00000006	0.00000000
53.59000000	92.95081788	648.15392748	58.68799164	0.36194149	0	-0.70189140	-0.07497369	0.11590094	-0.08485398	-0.00000005	0	0.00000004	0	-0.74806915	0	0	-0.00000021	0.00000000
53.60000000	96.74933209	642.31632580	58.05028630	0.35567743	0	-0.70165729	-0.10665087	0.19310226	-0.11127058	-0.00000006	0	0.00000004	0	-0.63040968	0	0	-0.00000015	0.00000000
53.61000000	100.31159946	635.14471913	57.17081568	0.34959328	0	-0.70140898	-0.10614406	0.28230494	-0.10184983	-0.00000004	0	0.00000002	0	-0.50444033	0	0	-0.00000007	-0.00000000
53.62000000	103.38374881	625.93244913	55.98407783	0.34365303	0	-0.70112678	-0.08852118	0.30715815	-0.03146132	-0.00000001	0	0.00000001	0	-0.37353606	0	0	-0.00000002	-0.00000000
53.63000000	105.75035746	613.64436727	54.27401218	0.33782865	0	-0.70075934	-0.09783121	0.33216900	-0.01909247	0.00000000	0	-0.00000000	0	-0.16483007	0	0	0.00000000	0.00000000
53.64000000	107.07203937	596.85219730	51.86152565	0.33198900	0	-0.70025412	-0.12628172	0.29443264	-0.02946168	0.00000001	0	-0.00000000	0	0.12430787	0	0	0.00000001	-0.00000000
53.65000000	106.84406911	574.10425778	48.67986369	0.32628238	0	-0.69960052	-0.15130309	0.13538650	-0.00509986	0.00000001	0	-0.00000000	0	0.48226849	0	0	0.00000000	0.00000000
53.66000000	104.42726264	544.77450735	44.87554352	0.32080066	0	-0.69878800	-0.16983984	-0.01929545	-0.03651977	0.00000000	0	-0.00000000	0	0.85184088	0	0	0.00000000	-0.00000000
53.67000000	99.55259613	508.87240501	40.59931310	0.31535057	0	-0.69784857	-0.19639908	-0.11810526	-0.04820561	-0.00000001	0	0.00000001	0	1.11621240	0	0	0.00000001	-0.00000000
53.68000000	92.37191524	466.51676421	35.89899336	0.30962798	0	-0.69682217	-0.21350986	-0.16194191	-0.04635466	-0.00000004	0	0.00000002	0	1.24980546	0	0	0.00000004	0.00000000
53.69000000	83.19076567	418.28583900	31.03287397	0.30389079	0	-0.69588277	-0.18982517	-0.17778233	-0.08858601	-0.00000008	0	0.00000004	0	1.19835913	0	0	0.00000007	0.00000000
53.70000000	72.28770208	365.42567222	26.36012793	0.29887944	0	-0.69554602	-0.15571540	-0.11307951	-0.12019495	-0.00000010	0	0.00000005	0	0.94402781	0	0	0.00000008	0.00000000
53.71000000	60.02355833	309.86892036	22.32787884	0.29529397	0	-0.69679589	-0.12724564	0.04008815	-0.12868666	0.00000002	0	-0.00000002	0	0.46891507	0	0	-0.00000003	0.00000000
53.72000000	46.97785299	254.21022839	19.14987925	0.29288688	0	-0.70093416	-0.11805366	0.25942563	-0.15744278	0.00000044	0	-0.00000022	0	-0.13626023	0	0	-0.00000040	-0.00000000
53.73000000	33.96207519	201.69496023	16.76227920	0.29080071	0	-0.70839246	-0.12354740	0.45355040	-0.14346619	0.00000125	0	-0.00000061	0	-0.83316908	0	0	-0.00000112	-0.00000000
53.74000000	22.05066269	155.22364770	14.93867197	0.28752027	0	-0.71581941	-0.11438858	0.56180001	-0.09714817	0.00000217	0	-0.00000104	0	-1.48933301	0	0	-0.00000190	0.00000000
53.75000000	12.07100846	116.26177705	13.42166765	0.27882261	0	-0.71123034	-0.10904489	0.55261137	-0.09289411	0.00000188	0	-0.00000086	0	-1.92896743	0	0	-0.00000156	0.00000000
53.76000000	4.11889746	84.91428265	12.11405912	0.26108525	0	-0.67047971	-0.09475089	0.48855499	-0.12999949	-0.00000246	0	0.00000132	0	-2.04782024	0	0	0.00000243	-0.00000000
53.77000000	-2.01853632	60.19881515	11.00834614	0.23468778	0	-0.56548210	-0.05656794	0.41433313	-0.20934504	-0.00001466	0	0.00000729	0	-1.75863943	0	0	0.00001334	0.00000000
53.78000000	-5.72778760	40.34405252	9.72462564	0.18843932	0	-0.39526211	-0.04441089	0.34984782	-0.29037145	-0.00003551	0	0.00001730	0	-1.21164090	0	0	0.00003158	-0.00000000
53.79000000	-6.12647766	24.14638310	7.90031476	0.11447166	0	-0.20435519	-0.07609960	0.33196398	-0.29944865	-0.00005306	0	0.00002526	0	-0.73762499	0	0	0.00004602	0.00000000
53.80000000	-3.30335596	11.80752602	5.69766327	0.04409211	0	-0.06247873	-0.10337168	0.36995508	-0.27151970	-0.00002763	0	0.00001166	0	-0.29457416	0	0	0.00002102	0.00000000
53.81000000	0.79767091	3.77397685	3.75389934	0.00537993	0	0.00349203	-0.10718265	0.42212992	-0.24171520	0.00011667	0	-0.00006009	0	-0.04310181	0	0	-0.00011023	-0.00000000
53.82000000	3.90167433	-0.26679559	2.69960135	-0.00728811	0	0.01929395	-0.11517916	0.50123197	-0.17342412	0.00046165	0	-0.00022804	0	0.04291580	0	0	-0.00041686	0
53.83000000	5.39027189	-1.53474314	2.29712727	-0.00729803	0	0.01464326	-0.14929753	0.63365239	-0.10325377	0.00096974	0	-0.00046969	0	0.04598651	0	0	-0.00085717	-0.00000000
53.84000000	5.81671656	-1.45494477	2.16234206	-0.00396520	0	0.00672431	-0.20959525	0.79063762	-0.06550158	0.00121578	0	-0.00057200	0	0.02577892	0	0	-0.00104126	-0.00000000
53.85000000	5.78292387	-1.00196895	2.15594768	-0.00127403	0	0.00156268	-0.27227569	0.81618834	-0.02309810	0.00004174	0	0.00003134	0	0.00866791	0	0	0.00006520	-0.00000000
53.86000000	5.64147366	-0.63989288	2.14093290	0.00001796	0	-0.00051275	-0.27638933	0.17526494	-0.01360071	-0.00448239	0	0.00226482	0	0.00019384	0	0	0.00414779	0
53.87000000	5.55513977	-0.41782527	2.12270505	0.00035048	0	-0.00082574	-0.15364122	-2.03355361	-0.06301191	-0.01386932	0	0.00680892	0	-0.00212954	0	0	0.01244028	0
53.88000000	5.51788747	-0.29989468	2.05495260	0.00027799	0	-0.00053089	0.19391140	-6.46824588	-0.09922421	-0.02542763	0	0.01223964	0	-0.00176900	0	0	0.02232521	0
53.89000000	5.49624441	-0.24520094	1.95227585	0.00013182	0	-0.00021050	0.83161681	-11.69451600	-0.14722380	-0.02518883	0	0.01162076	0	-0.00086542	0	0	0.02111767	0
53.90000000	5.45538539	-0.24917589	1.84996873	0.00003303	0	-0.00002980	1.57138550	-10.76331978	-0.18337460	0.01936937	0	-0.01086496	0	-0.00023160	0	0	-0.02005847	-0.00000000
53.91000000	5.39710418	-0.26716429	1.74809265	-0.00000812	0	0.00003147	1.49151480	12.27552518	-0.22909558	0.15476130	0	-0.07729897	0	0.00004140	0	0	-0.14143181	0
53.92000000	5.34985755	-0.21890575	1.65665491	-0.00001526	0	0.00003325	-1.59666110	79.19515782	-0.27889140	0.39994724	0	-0.19524831	0	0.00009447	0	0	-0.35656115	0
53.93000000	5.34106716	-0.13976617	1.52841783	-0.00001017	0	0.00001852	-11.49761285	198.66043998	-0.35876910	0.65877516	0	-0.31553300	0	0.00006529	0	0	-0.61058754	-0.00000000
53.94000000	5.33987772	-0.05072746	1.44932346	-0.00000418	0	0.00000617	-36.82885718	344.68729864	-1.68454215	0.81624134	0	-0.38454438	0	0.00002776	0	0	-0.97825764	0.00000000
53.95000000	5.33653338	0.00898186	1.44316496	-0.00000069	0	0.00000009	-76.98751681	477.70262287	-7.05384302	0.87758497	0	-0.40756520	0	0.00000517	0	0	-1.44615863	0
53.96000000	5.33151152	0.04141181	1.44011089	0.00000055	0	-0.00000155	-115.55825585	575.76769374	-17.69764150	0.88855053	0	-0.40690733	0	-0.00000315	0	0	-1.83201634	-0.00000000
53.97000000	5.30164330	0.02716970	1.43026514	0.00000062	0	-0.00000128	-139.06604327	631.62745430	-32.14536689	0.88244557	0	-0.39921457	0	-0.00000390	0	0	-2.12877039	0
53.98000000	5.26449676	-0.04380379	1.44923089	0.00000036	0	-0.00000062	-149.65592206	651.54042428	-47.67429496	0.87284813	0	-0.39217871	0	-0.00000232	0	0	-2.27554419	0
53.99000000	5.25604479	-0.13766407	1.47422228	0.00000013	0	-0.00000016	-153.30604656	654.04301872	-62.34554678	0.86388831	0	-0.38753651	0	-0.00000085	0	0	-2.19651101	-0.00000000
54.00000000	5.27289397	-0.18340968	1.51277985	0.00000001	0	0.00000003	-155.34547588	658.24761831	-75.46302126	0.85692380	0	-0.38460440	0	-0.00000008	0	0	-2.01098020	0
54.01000000	5.31019815	-0.18004920	1.55317325	-0.00000002	0	0.00000007	-159.19125295	673.06460594	-86.80861822	0.85200408	0	-0.38260825	0	0.00000015	0	0	-1.86339118	0
54.02000000	5.34558121	-0.19078915	1.55587579	-0.00000002	0	0.00000004	-162.56681726	695.95555030	-94.79233227	0.84872293	0	-0.38129993	0	0.00000016	0	0	-1.90406959	-0.00000000
